# xmcd
#
# Track frame offsets:
# 150
# 19564
# 40168
# 58915
# 79593
# 97562
# 114406
# 131973
# 151476
# 168216
# 186474
# 201524
# 216648
# 231480
# 245866
# 260371
# 275144
# 290083
# 304893
# 319786
#
# Disc length: 4464 seconds
#
# Revision: 3
# Processed by: cddbd v1.4PL0 Copyright (c) Steve Scherf et al.
# Submitted via: Axialis_AX_CDPlayer 2.6
#
DISCID=31116e14,36116e14
DTITLE=Various Artist - Super Sanremo 2001
DYEAR=1900
DGENRE=
TTITLE0=Giorgia - Di Sole e d'Azzurro
TTITLE1=Michele Zarrillo - l'Acrobata
TTITLE2=Paola Turci - Saluti d'Inverno
TTITLE3=Gigi D'Alessio - Tu Che Ne Sai
TTITLE4=Anna Oxa - l'Eterno Movimento
TTITLE5=Bluvertigo - l'Assenzio
TTITLE6=Matia Bazar - Questa Nostar Grande Storia d'Amore
TTITLE7=Sottotono - Mezze Verità
TTITLE8=Syria - Fantasticamenteamore
TTITLE9=Peppino De Capri - Pioverà
TTITLE10=Paolo Meneguzzi - E Io Non Ci Sto Più
TTITLE11=Pincapallina - Quando Io
TTITLE12=Moses - Maggie
TTITLE13=Stefani Ligi - Battiti
TTITLE14=Xsense - Luna
TTITLE15=Riky Anelli - Ho Vinto Un Viaggio
TTITLE16=Carlito - Emily
TTITLE17=Principe e Socio m - Targato na
TTITLE18=Grazie - Isola song
TTITLE19=Bocca - Sara6
EXTD=
EXTT0=
EXTT1=
EXTT2=
EXTT3=
EXTT4=
EXTT5=
EXTT6=
EXTT7=
EXTT8=
EXTT9=
EXTT10=
EXTT11=
EXTT12=
EXTT13=
EXTT14=
EXTT15=
EXTT16=
EXTT17=
EXTT18=
EXTT19=
PLAYORDER=
